<svg id="visual" viewBox="0 0 900 600" width="900" height="600" xmlns="http://www.w3.org/2000/svg" xmlns:xlink="http://www.w3.org/1999/xlink" version="1.1"><rect x="0" y="0" width="900" height="600" fill="#001220"></rect><path d="M0 338L25 335C50 332 100 326 150 348.8C200 371.7 250 423.3 300 436.5C350 449.7 400 424.3 450 417.8C500 411.3 550 423.7 600 416C650 408.3 700 380.7 750 372.7C800 364.7 850 376.3 875 382.2L900 388L900 601L875 601C850 601 800 601 750 601C700 601 650 601 600 601C550 601 500 601 450 601C400 601 350 601 300 601C250 601 200 601 150 601C100 601 50 601 25 601L0 601Z" fill="#4facf7"></path><path d="M0 500L25 471.3C50 442.7 100 385.3 150 385.3C200 385.3 250 442.7 300 475.7C350 508.7 400 517.3 450 494.3C500 471.3 550 416.7 600 404.3C650 392 700 422 750 436.3C800 450.7 850 449.3 875 448.7L900 448L900 601L875 601C850 601 800 601 750 601C700 601 650 601 600 601C550 601 500 601 450 601C400 601 350 601 300 601C250 601 200 601 150 601C100 601 50 601 25 601L0 601Z" fill="#98c6fa"></path><path d="M0 449L25 451C50 453 100 457 150 462.5C200 468 250 475 300 468C350 461 400 440 450 444C500 448 550 477 600 491.2C650 505.3 700 504.7 750 513.7C800 522.7 850 541.3 875 550.7L900 560L900 601L875 601C850 601 800 601 750 601C700 601 650 601 600 601C550 601 500 601 450 601C400 601 350 601 300 601C250 601 200 601 150 601C100 601 50 601 25 601L0 601Z" fill="#cee2fd"></path><path d="M0 463L25 479C50 495 100 527 150 530.5C200 534 250 509 300 512.5C350 516 400 548 450 546.8C500 545.7 550 511.3 600 506C650 500.7 700 524.3 750 532.5C800 540.7 850 533.3 875 529.7L900 526L900 601L875 601C850 601 800 601 750 601C700 601 650 601 600 601C550 601 500 601 450 601C400 601 350 601 300 601C250 601 200 601 150 601C100 601 50 601 25 601L0 601Z" fill="#ffffff"></path></svg>